<svg width="1147" height="256" viewBox="0 0 1147 256" xmlns="http://www.w3.org/2000/svg"><g fill="none" fill-rule="evenodd"><path d="M232.6 256H23.4C10.4 256 0 245.5 0 232.6V23.4C0 10.4 10.5 0 23.4 0h209.2c13 0 23.4 10.5 23.4 23.4v209.2c0 13-10.5 23.4-23.4 23.4z" fill="#000"/><g opacity=".9"><path fill="#FFF" d="M52.5 37.5v11.4L43 55.3l9.4 5.6v12.6L30 55.5l22.6-18zM63.2 33.7l2.3 8.2s9-7.3 11.4-1.8c2.3 5.5-9.9 9.2-8.2 18.4 0 0 2-.6 5-.6s5.1.6 5.1.6-.2-4.8 3.2-7.6c4.5-3.7 8.1-10 3.8-17-3.7-6.1-13.6-7.8-22.6-.2"/><path d="M80 68.6c0 3.2-2.6 5.2-5.8 5.2-3.2 0-5.8-2-5.8-5.2s2.6-5.3 5.8-5.3c3.2 0 5.8 2.1 5.8 5.3" fill="#FCFFFF"/></g><path fill="#FF2305" d="M38.8 218v-53h115.3v53z"/><g fill="#FCFFFF"><path opacity=".7" d="M179 75h-74V51h74z"/><path opacity=".5" d="M179 51h-74V37h74z"/></g><g fill="#FCFFFF"><path opacity=".7" d="M91 144H29v-24h62z"/><path opacity=".5" d="M91 120H29v-14h62z"/></g><g fill="#FCFFFF"><path opacity=".7" d="M225 144H110v-24h115z"/><path opacity=".5" d="M225 120H110v-14h115z"/></g><g fill="#FCFFFF"><path opacity=".7" d="M146 210H47v-24h99z"/><path opacity=".5" d="M146 186H47v-14h99z"/></g><g fill="#FCFFFF"><path opacity=".7" d="M224 210h-59v-24h59z"/><path opacity=".5" d="M224 186h-59v-14h59z"/></g><path d="M316.8 224v-25h25.9V59.5h-26V34.5H411c59.6 0 82.6 23.9 82.6 57.6 0 32.5-22.5 58.5-82 58.5h-22v48.3h28V224H316.8zm72.8-97.3h18.5c28 0 35.4-11.9 35.4-34.9 0-21.9-7.8-33.4-35.7-33.4h-18.2v68.3zm113 99.9H525l4.6-18.2a56.3 56.3 0 0 0 43.7 18.5c32.9 0 51-21 51-44.4 0-26.8-19.8-36.3-49.2-44-25.7-6.7-33.4-10.4-33.4-20.2 0-7.8 5.7-13 17-13 14.4 0 28.2 11.3 38.6 27.4h22.1v-46H597l-4.6 16c-8.4-10-21-16.7-38.6-16.7-30 0-49 20-49 43.5 0 24.2 15.8 34.6 48.1 43 26.8 6.9 34.3 10.9 34.3 21.3 0 8.3-5.5 13.8-17.6 13.8-16.4 0-32.8-12.4-44.6-30.5h-22.2v49.5zm178.6 0c-23.9 0-41.1-13.8-41.1-35.7 0-9 3.4-17.3 9.5-23.3 8.9-9 22.7-14.7 55.8-19 15.9-2.4 17.3-2.6 17.3-6.1v-11.8c0-17.3-8-23.6-24.7-23.6-5.8 0-11.9 1.1-17.3 3.4 4.3 3.2 6.9 8 6.9 14.7 0 10.1-8.7 17.9-20.5 17.9-14.7 0-21.9-9.5-21.9-20.2 0-24.8 30.9-36.6 64-36.6 40.6 0 55 19 55 47v61.3c0 6.6 2.6 8 7.2 8 3.2 0 6.3-3 9-12.9l14 4.6c-5.4 22.2-16.1 32.3-35.4 32.3-16.4 0-29.4-8.6-31.7-28.5H726c-8.7 20.4-24.8 28.5-44.7 28.5zm20.6-24.5c13 0 22-12 22-29.4v-13.2c-2.7.6-5.8.9-13 2.3-20.5 3.4-26.8 10-26.8 23 0 9.2 5.2 17.3 17.8 17.3zm93.5 21.9h86.1v-23.9h-21.9V25.3h-64.2v24.5h21.9V200h-21.9V224zm245-102c-2.8-22.1-14.9-35.7-38-35.7-23.3 0-38 15.6-47.5 38.3V89.2h-59.3v24h19.9V200h-19.9V224h75.8v-23.9h-13.9v-52.7c0-19.3 12.4-32.8 24.5-32.8 5.2 0 9.2 1.4 11.8 4.3 4.3 4.3 6.4 11.5 6.4 20.7v60.5h-14.4V224h70.2v-23.9h-13.8v-52.7c0-19.3 12.4-32.8 24.5-32.8 5.5 0 9.2 1.4 12 4.3 4.4 4.3 6.1 11.5 6.1 20.7v60.5h-14.4V224h76v-23.9h-19.5v-66.2c0-28-11.5-47.6-39.8-47.6-22.4 0-36.8 14.1-46.6 35.7z" fill="#000"/></g></svg>