<svg width="64" height="64" viewBox="395 -132 64 64" xmlns="http://www.w3.org/2000/svg">
  <defs>
    <linearGradient x1="50%" y1="100%" x2="50%" y2="0%" id="a">
      <stop stop-color="#F7F7F7" offset="0%"/>
      <stop stop-color="#E5E7E6" offset="100%"/>
    </linearGradient>
  </defs>
  <g fill="none" fill-rule="evenodd">
    <path d="M58.1497 0H5.8503C2.6183 0 0 2.6192 0 5.8503v52.2994C0 61.3817 2.6184 64 5.8503 64h52.2994C61.3817 64 64 61.3816 64 58.1497V5.8503C64 2.6193 61.3816 0 58.1497 0z" fill="url(#a)" transform="matrix(1 0 0 -1 395 -68)"/>
    <g opacity=".5805" fill="#000">
      <path d="M407.866-121.2338l.0062 2.85-2.342 1.6125 2.3495 1.397.0062 3.1405-5.671-4.4906 5.6528-4.5094M410.541-122.165l.5856 2.05s2.26-1.825 2.846-.4563c.5855 1.3656-2.4648 2.2906-2.035 4.5937 0 0 .488-.1375 1.2302-.1375s1.2822.1374 1.2822.1374-.0466-1.1875.8063-1.8937c1.1124-.922 2.0312-2.5063.95-4.278-.925-1.5126-3.401-1.919-5.6654-.0314M414.7384-113.4526c0 .7938-.6447 1.3032-1.4397 1.3032-.7953 0-1.44-.5094-1.44-1.3032 0-.7937.6447-1.3343 1.44-1.3343.795 0 1.4397.5407 1.4397 1.3344"/>
    </g>
    <g opacity=".5463" fill="#000">
      <path opacity=".4448" d="M442-112h-20v-7h20v7"/>
      <path opacity=".2666" d="M442-119h-20v-3h20v3"/>
    </g>
    <g opacity=".5463" fill="#000">
      <path opacity=".4448" d="M418-95h-16v-7h16v7"/>
      <path opacity=".2666" d="M418-102h-16v-3h16v3"/>
    </g>
    <g opacity=".5463" fill="#000">
      <path opacity=".4448" d="M451-95h-28v-7h28v7"/>
      <path opacity=".2666" d="M451-102h-28v-3h28v3"/>
    </g>
    <g opacity=".5463" fill="#000">
      <path opacity=".4448" d="M431-78h-24v-7h24v7"/>
      <path opacity=".2666" d="M431-85h-24v-3h24v3"/>
    </g>
    <g opacity=".5463" fill="#000">
      <path opacity=".4448" d="M451-78h-15v-7h15v7"/>
      <path opacity=".2666" d="M451-85h-15v-3h15v3"/>
    </g>
    <path fill="#FF2305" opacity=".4996" d="M405-76.0037v-4h28v4"/>
  </g>
</svg>