<svg width="1418" height="369" xmlns="http://www.w3.org/2000/svg"><defs><linearGradient x1="71.2%" y1="47.3%" x2="-35.2%" y2="52.3%" id="a"><stop stop-color="#B84848" offset="0%"/><stop stop-color="#552020" offset="100%"/></linearGradient><linearGradient x1="50%" y1="81.8%" x2="50%" y2="0%" id="b"><stop stop-color="#B84848" offset="0%"/><stop stop-color="#552020" offset="100%"/></linearGradient><linearGradient x1="0%" y1="50%" x2="100%" y2="50%" id="c"><stop stop-color="#3D6BBD" offset="0%"/><stop stop-color="#3D6BBD" offset="26%"/><stop stop-color="#3D6BBD" offset="53.1%"/><stop stop-color="#1D224F" offset="100%"/></linearGradient><linearGradient x1="73.1%" y1="18.9%" x2="50%" y2="81.4%" id="d"><stop stop-color="#471851" offset="0%"/><stop stop-color="#993CB4" offset="100%"/><stop stop-color="#9B4AB4" offset="100%"/></linearGradient></defs><g fill="none" fill-rule="evenodd"><path d="M31.1 243v-37.6h19.6c27.4 0 46.1-15.1 46.1-41.2 0-26.5-17-41.4-46-41.4H.7V243h30.3zm16-61.2h-16v-35.1h16c13 0 18.6 6.7 18.6 17.6 0 11.4-5.8 17.5-18.6 17.5zm95.4 63.4c23.8 0 40.7-10.7 40.7-30.5 0-36.3-49.5-21.4-49.5-37.4 0-5.4 4.2-8.6 11-8.6 7.7 0 12.2 4.1 13 10.4l24.6-2.9c-2.7-16.9-16.2-26.4-37.8-26.4-21.2 0-38.5 10.6-38.5 30.6 0 35.2 49.1 21 49.1 36.9 0 5.7-4.8 8.6-12.4 8.6-7.5 0-13.7-4.5-15-11.2l-24.8 5.6c4 16.8 19.8 24.9 39.6 24.9zm127.7-.4c6 0 12.2-1.6 16.3-4.5l-1-19.3c-1.5 1.3-3.1 2-5 2-3.3 0-5.8-1.8-5.8-6.5v-36.1c0-19.3-11.7-30.6-37.7-30.6-23 0-37.6 11.3-39.2 29.5L225 183c0-7.8 3.8-12.3 10.8-12.3 6.8 0 10.2 4 10.2 10.6v9.2c-3-.2-7.7-.5-11.3-.5-25.7 0-41.4 10-41.4 28.2 0 16.8 11.7 26.5 28.8 26.5 12 0 22.5-5.4 26.3-14.2.7 2.3 1.6 4.3 3 6 4 5.1 10.5 8.2 18.8 8.2zm-37.7-19.3c-6.8 0-10.8-3.7-10.8-9.5 0-7.4 6.2-11.2 18-11.2 2.4 0 4.7.2 6.3.4v5.4c0 11-6.8 15-13.5 15zm90.2 19.3c8.3 0 15.1-2 19.3-4.5l-1.5-21a11.2 11.2 0 01-6.8 2.3c-4.1 0-6.3-2.4-6.3-7.8V113h-29.7v107.3c0 18.4 12.2 24.5 25 24.5zm62.8-1.8v-49.5c0-13.7 6.5-19 14-19 8.7 0 11.6 5.1 11.6 14.1V243h29.7v-49.5c0-13.7 6.7-19 14-19 8.9 0 11.6 5.1 11.6 14.1V243h29.8v-64c0-19.5-12-29.2-28.2-29.2-13 0-24 7-28.5 19.2-3.6-12.6-13.8-19.2-26.8-19.2a28 28 0 00-27.9 19.6l-3.6-17.5h-25.4V243h29.7z" fill="#000" fill-rule="nonzero"/><path d="M671 44c-38.2 84.7-60 144.6-65.6 179.5-5.4 35-3.4 69.8 6.2 104.5 16.2-61 28.7-112.6 37.5-154.7C657.8 131.2 665 88 671 44z" fill="#000"/><path d="M533.4 229.6c13.8 14.3 65.8-10.4 94.7-17.2 28.9-6.8 71.8-20.4 90.9-24.6-11-6.8-87.2-1.8-151.4 11.1-21.7 4.5-48 16.4-34.2 30.7z" fill="url(#a)"/><path d="M636.7 66c-23.8 30-72 92.2-86.9 111.6-14.9 19.5-30.5 38.2-16.4 52 6.9 6.7 16.4 5.4 28.1 2.7-8.8-5.7 1-26 6-33.4 11.9-18.3 63.4-91 69.2-132.9z" fill="url(#b)"/><path d="M1398.5 105l-10.4-11.6 7.4 13.9c.1.2 9.2 17.5-2.2 37.8a84.9 84.9 0 01-19.1 19l-.4-.9c-8.2-20.4-15.3-38-8.4-50.4 2.6-3.7 5.6-5.6 8.8-5.6 6.5 0 12.5 7.3 12.5 7.4l8.3 10.4-5.2-12.3c-.3-1-9.3-21.7-25.3-21.7a26 26 0 00-17 7.7l-.2.2c-13.9 16.5-.3 47.7 11.8 75.1v.1c-17 10-32.9 16.3-33.2 16.4-23.2 10.6-37.7 27.2-39.7 45.5a40.6 40.6 0 0016.9 36.7l.2.1c7.6 4.8 16 7.2 24.7 7.2 23 0 40.8-16.3 41.6-17l11.1-10.4-13.2 7.3c-.1 0-11.2 6-22.7 6a22.6 22.6 0 01-22-14c-5.5-20.2 13.8-34 36.2-50 3-2 6-4.2 9-6.4 4.1 10.9 8.1 24 5.6 33.5a54 54 0 01-16.9 25.4l-8.3 6.6 10-3.3c1-.3 23.3-7.8 28.7-27.8a88.3 88.3 0 00-5.1-45.3c11-9.4 25.3-23.9 28.7-44.3 2.6-18.4-11.6-34.5-12.2-35.2" fill="#141313" fill-rule="nonzero"/><path d="M1396.8 265.3c.1-.2 9.2-17.2-2.3-37.2a84.3 84.3 0 00-19.1-18.6l-15.1-9.9-.1.3v-.3l-.5-.3c-16.7-9.8-32.4-15.7-32.6-15.8-23.3-10.5-37.8-26.8-39.8-44.8a39.7 39.7 0 0116.9-36.1l.1-.1c7.8-4.7 16.1-7.1 24.8-7.1 23 0 41 16 41.7 16.8l11.2 10.1-13.3-7.1c-.1 0-11.2-6-22.7-6a22.7 22.7 0 00-22 13.9c-5.6 19.8 13.8 33.4 36.2 49l9 6.5h.1l.1.1 13.3 10 .5.6c11 9.2 25.4 23.4 28.8 43.5 2.6 18.1-11.6 34-12.2 34.7l-10.4 11.5 7.4-13.7z" fill="url(#c)" fill-rule="nonzero" transform="matrix(1 0 0 -1 0 374.4)"/><path d="M993.8 211.9c5.8-4.9 9.7-13 11.7-24.3 2-10.9 1.1-18.6-2.6-23-3.7-4.5-11.2-6.8-22.3-6.8h-16.5l-11 61.3h14.3c11.8 0 20.6-2.4 26.4-7.2zm35-62.6c7.8 9.6 10.2 23.2 7 40.5a64.8 64.8 0 01-18.4 35.9 51.2 51.2 0 01-19.5 12.8 83.2 83.2 0 01-27.4 3.8H949l-7.7 39.7H912l26.9-147.3h52.8c17 0 29.4 4.9 37.1 14.6zm60.7-14.6h26c16.2 0 27.5 3.1 33.7 9.3 6.2 6.2 8 16.2 5.5 30.1l-12.1 68.2H1113l11.6-64.9c1.3-7.3.8-12.4-1.5-15-2.3-2.7-7.1-4-14.6-4h-23.2l-15 83.9h-29.1L1067.6 95h29.1l-7.2 39.7zm121.7 84.4c11.8 0 20.6-2.4 26.4-7.2 5.8-4.9 9.7-13 11.8-24.3 1.9-10.9 1-18.6-2.7-23-3.7-4.5-11.1-6.8-22.3-6.8H1208l-11 61.3h14.3zm61.5-69.8c7.7 9.6 10 23.2 7 40.5a64.8 64.8 0 01-18.4 35.9 51.2 51.2 0 01-19.6 12.8 83.2 83.2 0 01-27.3 3.8h-21.6l-7.7 39.7h-29.3l26.9-147.3h52.8c17 0 29.4 4.9 37.2 14.6z" fill="#000" fill-rule="nonzero"/><path d="M797.2 240.2c-8.2-13.8-19.7-18.6-34.7-34.5-19.8-21-2.5-61.4 26.5-41.2 11.4 8 11.4 28.2 11.8 27.7 5.5-15.2 13.1-24.6 22.7-28.1 6-2.3 13-1.6 19.4-1.1 2.4.1 4.7 1.6 6.7 3 1.4.8 2.6 2 3.5 3.4 1.2 1.7 2.5 3.6 2.8 5.7 4.4 26.9-22.8 38.2-40.8 49.3a71 71 0 00-17.9 15.8z" fill="url(#d)"/></g></svg>
